<svg width="24" height="24"><path d="M2.413 19.334l2.242 2.265-2.348.976a.673.673 0 01-.88-.88l.986-2.361zM21.5 9.875c.314 0 .574.231.618.533l.007.092v11a.625.625 0 01-.533.618l-.092.007h-11a.625.625 0 01-.092-1.243l.092-.007h10.375V10.5c0-.314.231-.574.533-.618l.092-.007zm-3.587-7.692a2.76 2.76 0 113.903 3.904L7.563 20.335a.625.625 0 01-.211.139l-1.19.474a.625.625 0 01-.67-.136l-2.323-2.294a.625.625 0 01-.142-.675l.474-1.195a.625.625 0 01.14-.212zM13.5 1.875a.625.625 0 01.092 1.243l-.092.007H3.124L3.125 13.5a.625.625 0 01-.533.618l-.092.007a.625.625 0 01-.618-.533l-.007-.092v-11c0-.314.231-.574.533-.618l.092-.007h11z" fill="#ff4343"/></svg>