<svg width="24" height="24"><path d="M20.582 1.469a2.756 2.756 0 011.37 4.467l-.134.144L7.594 20.299a.625.625 0 01-.129.099l-.073.036-1.238.514.006.006-.1.033-3.82 1.59a.615.615 0 01-.662-.116l-.058.02.019-.059a.614.614 0 01-.147-.57l.03-.092 1.593-3.831.03-.09.006.006.515-1.237a.625.625 0 01.081-.14l.054-.062 14.22-14.224a2.756 2.756 0 012.661-.713zm.918 8.406c.314 0 .574.231.618.533l.007.092v11a.625.625 0 01-.533.618l-.092.007h-11a.625.625 0 01-.092-1.243l.092-.007h10.375V10.5c0-.314.231-.574.533-.618l.092-.007zm-2.577-6.916l-.119.107L4.673 17.201l-.666 1.6 1.19 1.19 1.601-.665 14.136-14.13c.304-.305.46-.72.44-1.14l-.017-.158-.033-.157a1.506 1.506 0 00-2.4-.782zM13.5 1.875a.625.625 0 01.092 1.243l-.092.007H3.124L3.125 13.5a.625.625 0 01-.533.618l-.092.007a.625.625 0 01-.618-.533l-.007-.092v-11c0-.314.231-.574.533-.618l.092-.007h11z" fill="#666"/></svg>