<svg width="24" height="24"><path d="M12 11.375c2.276 0 4.125 1.823 4.125 4.076V22.5c0 .345-.28.625-.625.625h-7a.625.625 0 01-.625-.625v-7.05c0-2.252 1.849-4.075 4.125-4.075zm-7-2c1.376 0 2.638.671 3.403 1.771a.625.625 0 11-1.027.714A2.885 2.885 0 005 10.625c-1.533 0-2.783 1.178-2.87 2.66l-.005.166-.001 8.424h4.127c.314 0 .574.231.618.533l.007.092a.625.625 0 01-.533.618l-.092.007H1.5a.625.625 0 01-.618-.533L.875 22.5v-9.05c0-2.252 1.849-4.075 4.125-4.075zm14 0c2.277 0 4.126 1.823 4.126 4.076V22.5l-.007.092a.625.625 0 01-.618.533h-4.75l-.093-.007a.625.625 0 01-.533-.618l.007-.092a.625.625 0 01.618-.533h4.126v-8.424l-.005-.166c-.088-1.482-1.337-2.66-2.87-2.66-.964 0-1.844.468-2.377 1.235a.625.625 0 11-1.027-.713 4.135 4.135 0 013.404-1.772zm-7 3.25c-1.59 0-2.875 1.267-2.875 2.826v6.424h5.75v-6.424c0-1.503-1.195-2.735-2.706-2.821zm0-10c1.02 0 1.949.394 2.64 1.04.744.651 1.235 1.54 1.235 2.46v.625A3.888 3.888 0 0112 10.375a3.875 3.875 0 01-3.867-3.624l-.008-.001v-.625c0-.92.491-1.809 1.234-2.46A3.863 3.863 0 0112 2.624zm2.613 4.126H9.387a2.625 2.625 0 005.226 0zM19.192.625h.126l.032.001.082.004c.024 0 .048.002.073.004l.047.003.111.01.033.005-.144-.015a3.875 3.875 0 013.567 4.068l-.002 2.176.022.188.025.151.012.06.059.012c.376.096.655.549.392.947l-.056.074c-.09.106-.234.244-.429.38-.848.597-1.86.578-2.695-.442a3.367 3.367 0 01-.042-.053 3.872 3.872 0 01-3.362-.512.625.625 0 01.712-1.028 2.625 2.625 0 002.672.188c.64-.453.834-1.328.415-2.046-.049-.098-.196-.263-.419-.459a7.849 7.849 0 00-.569-.447c-.259-.188-.539-.374-.819-.55l-.042-.026-1.875 1.237a.625.625 0 01-.839-.14l-.053-.082-.452-.824a.628.628 0 01-.108-.32v-.02a.625.625 0 01.056-.283A3.874 3.874 0 0118.354.73l.042-.01c.05-.011.1-.022.151-.03l.03-.005c.117-.022.235-.037.353-.046l.06-.004c.05-.004.098-.006.148-.008h.01zm-14.505 0a3.86 3.86 0 011.164.16l.042.013a3.85 3.85 0 011.744 1.117 4.035 4.035 0 01.45.616l.006.008c.067.116.13.236.186.36.023.05.039.104.048.157.05.217.041.44-.019.634-.134.503-.53.948-1.088.948-.372 0-.677-.203-1.034-.56a5.872 5.872 0 01-.354-.391l-.158-.198-.31.253c-.296.23-.612.446-.948.649l-.343.198a6.796 6.796 0 01-1.882.492 2.625 2.625 0 004.054 1.577.625.625 0 01.711 1.028 3.875 3.875 0 01-5.822-4.58l.026-.065a3.065 3.065 0 01.111-.248l.036-.071A3.864 3.864 0 013.396.869l.116-.041.062-.02a3.405 3.405 0 01.351-.094L3.736.76c.06-.016.12-.031.18-.044L3.943.71a3.294 3.294 0 01.414-.065l.09-.008.058-.004.048-.003.097-.004z" fill="#666"/></svg>